<svg width="24" height="24" viewBox="0 0 24 24" fill="none" xmlns="http://www.w3.org/2000/svg">
<path d="M23.3496 10.1313C23.0144 8.61523 20.8398 7.49283 17.9636 7.3798V4.17236C17.9636 2.36404 15.4226 1 12.0476 1C8.67254 1 6.13153 2.36404 6.13153 4.17236V9.71816C3.01373 9.78831 0.5 12.341 0.5 15.4705C0.5 18.6468 3.08388 21.2306 6.26014 21.2306C7.82294 21.2306 9.24154 20.6032 10.2782 19.5899C10.6991 19.6562 11.1317 19.7029 11.576 19.7185C11.5682 19.7536 11.5643 19.7887 11.5643 19.8276C11.5643 21.636 14.1053 23 17.4803 23C20.8554 23 23.3964 21.636 23.3964 19.8276C23.3964 19.8237 23.3964 19.8198 23.3964 19.8159C23.3964 19.812 23.3964 19.8081 23.3964 19.8043V10.3651C23.4003 10.2833 23.3808 10.2053 23.3496 10.1313ZM22.2311 16.7332C22.2311 17.6802 20.2006 18.7364 17.4842 18.7364C14.7678 18.7364 12.7374 17.6802 12.7374 16.7332V15.5718C13.7974 16.3318 15.4927 16.8112 17.4842 16.8112C19.4757 16.8112 21.171 16.3357 22.2311 15.5718V16.7332ZM12.0281 9.26997C9.32338 9.26608 7.30461 8.20992 7.30461 7.26679V6.1054C8.36466 6.86537 10.06 7.34473 12.0515 7.34473C14.043 7.34473 15.7383 6.86926 16.7983 6.1054V7.3876C14.5925 7.51231 12.827 8.2372 12.0281 9.26997ZM11.5721 10.4275V12.3527C11.4084 12.3449 11.2447 12.3332 11.081 12.3176C10.2314 11.0276 8.8791 10.0962 7.30461 9.80779V9.19982C8.27892 9.90133 9.79105 10.3573 11.5721 10.4275ZM11.5721 18.5415C11.4279 18.5337 11.2837 18.5337 11.1434 18.5221C11.3032 18.2648 11.4513 17.9998 11.5721 17.7153V18.5415ZM22.2311 13.6349C22.2311 14.5819 20.2006 15.6381 17.4842 15.6381C14.7678 15.6381 12.7374 14.5819 12.7374 13.6349V12.4735C13.7974 13.2335 15.4927 13.7128 17.4842 13.7128C19.4757 13.7128 21.171 13.2374 22.2311 12.4735V13.6349ZM22.2311 10.5405C22.2311 11.4875 20.2006 12.5437 17.4842 12.5437C14.7678 12.5437 12.7374 11.4875 12.7374 10.5405C12.7374 9.59344 14.7678 8.53729 17.4842 8.53729C20.2006 8.53729 22.2311 9.59344 22.2311 10.5405ZM12.0515 2.16918C14.7678 2.16918 16.7983 3.22533 16.7983 4.17236C16.7983 5.1194 14.7678 6.17555 12.0515 6.17555C9.33508 6.17555 7.30461 5.1194 7.30461 4.17236C7.30461 3.22533 9.33508 2.16918 12.0515 2.16918ZM1.67307 15.4705C1.67307 12.9373 3.73472 10.8795 6.26404 10.8795C8.79725 10.8795 10.855 12.9412 10.855 15.4705C10.855 17.9998 8.79336 20.0615 6.26404 20.0615C3.73472 20.0654 1.67307 18.0037 1.67307 15.4705ZM17.4842 21.8347C14.7678 21.8347 12.7374 20.7786 12.7374 19.8315C12.7374 19.7575 12.7218 19.6912 12.6984 19.625C12.7218 19.5626 12.7374 19.4925 12.7374 19.4184V18.6663C13.7974 19.4262 15.4927 19.9056 17.4842 19.9056C19.4757 19.9056 21.171 19.4301 22.2311 18.6663V19.8081C22.2311 19.812 22.2311 19.8159 22.2311 19.8198C22.2311 19.8237 22.2311 19.8276 22.2311 19.8315C22.2311 20.7747 20.2006 21.8347 17.4842 21.8347Z" fill="#4D4D4D"/>
</svg>
