<svg width="32" height="32" viewBox="0 0 32 32" fill="none" xmlns="http://www.w3.org/2000/svg">
    <path d="M28.5335 10.614C27.6935 7.92065 26.0136 5.57398 23.7469 3.90732C21.4802 2.24065 18.7335 1.33398 15.9069 1.33398C13.0802 1.33398 10.3469 2.24065 8.06688 3.90732C5.78688 5.57398 4.10688 7.92065 3.26688 10.614C2.42688 13.3073 2.46688 16.1873 3.37355 18.854C4.28022 21.5207 6.02688 23.8273 8.34688 25.4273L9.01355 25.894L8.97355 25.0806C8.96022 24.7206 8.97355 24.374 9.00022 24.014L9.02688 23.7873L8.85355 23.654C6.96022 22.1873 5.56022 20.1607 4.86688 17.854C4.17355 15.5473 4.22688 13.094 5.00022 10.8273C5.77355 8.56065 7.24022 6.58732 9.20022 5.18732C11.1602 3.78732 13.4936 3.04065 15.8935 3.04065C18.2936 3.04065 20.6402 3.78732 22.5869 5.18732C24.5469 6.58732 26.0135 8.56065 26.7869 10.8273C27.5602 13.094 27.6136 15.5606 26.9202 17.854C26.2269 20.1607 24.8402 22.1873 22.9335 23.654L22.7602 23.7873L22.7869 24.014C22.8269 24.374 22.8269 24.7206 22.8135 25.0806L22.7736 25.894L23.4402 25.4273C25.7602 23.814 27.4935 21.5207 28.4135 18.854C29.3335 16.1873 29.3602 13.294 28.5202 10.614H28.5335Z" fill="#4D4D4D"/>
    <path d="M16.8136 21.5072H14.9736C14.7469 21.5072 14.5336 21.6005 14.3602 21.7605C14.1869 21.9205 14.1069 22.1338 14.1069 22.3738C14.1069 22.6138 14.2002 22.8138 14.3602 22.9872C14.5202 23.1472 14.7336 23.2405 14.9736 23.2405H16.8136C17.0402 23.2405 17.2536 23.1472 17.4269 22.9872C17.5869 22.8272 17.6802 22.6138 17.6802 22.3738C17.6802 22.1338 17.5869 21.9338 17.4269 21.7605C17.2669 21.6005 17.0536 21.5072 16.8136 21.5072Z" fill="#4D4D4D"/>
    <path fill-rule="evenodd" clip-rule="evenodd" d="M17.6402 16.0275C17.9869 16.3742 18.2269 16.8142 18.3202 17.2942L18.3069 17.2809C18.4002 17.7609 18.3469 18.2542 18.1602 18.7075C17.9736 19.1609 17.6536 19.5475 17.2536 19.8142C16.8402 20.0809 16.3736 20.2275 15.8802 20.2275C15.2402 20.2275 14.6136 19.9742 14.1469 19.5075C13.6936 19.0409 13.4269 18.4142 13.4269 17.7609C13.4269 17.2675 13.5736 16.7875 13.8402 16.3875C14.1069 15.9875 14.4936 15.6675 14.9469 15.4809C15.4002 15.3075 15.8936 15.2542 16.3736 15.3475C16.8536 15.4542 17.2936 15.6809 17.6402 16.0275ZM16.0402 18.5075C16.1869 18.4809 16.3202 18.4142 16.4269 18.3075L16.4402 18.2942C16.5469 18.1875 16.6136 18.0542 16.6402 17.9075C16.6669 17.7609 16.6536 17.6142 16.6002 17.4809C16.5336 17.3475 16.4402 17.2275 16.3202 17.1475C16.2002 17.0675 16.0536 17.0275 15.9069 17.0275C15.7069 17.0275 15.5069 17.0942 15.3736 17.2409C15.2402 17.3875 15.1602 17.5742 15.1602 17.7742C15.1602 17.9209 15.2002 18.0675 15.2802 18.1875C15.3602 18.3209 15.4802 18.4142 15.6136 18.4675C15.7469 18.5209 15.8936 18.5342 16.0402 18.5075Z" fill="#4D4D4D"/>
    <path fill-rule="evenodd" clip-rule="evenodd" d="M16.0802 7.32091C16.1336 7.34758 16.2002 7.40091 16.2002 7.40091L16.2536 7.38758C17.0269 8.01424 21.7202 12.2542 21.1069 19.9076C22.3202 21.6409 24.0536 25.2409 21.2802 29.0409C21.2002 29.1476 21.0936 29.2276 20.9736 29.2942C20.8536 29.3609 20.7202 29.3876 20.5869 29.3876C20.4536 29.3876 20.3202 29.3609 20.2002 29.2942C20.0802 29.2409 19.9736 29.1476 19.8936 29.0409L18.6402 27.3342V28.3076C18.6402 28.5476 18.5602 28.7609 18.3869 28.9209C18.2136 29.0809 18.0136 29.1742 17.7736 29.1742C17.5336 29.1742 17.3202 29.0809 17.1602 28.9209C17.0002 28.7476 16.9069 28.5342 16.9069 28.3076V26.8809H16.7869V30.6009C16.7869 30.8409 16.6936 31.0542 16.5336 31.2142C16.3602 31.3742 16.1602 31.4676 15.9202 31.4676C15.6802 31.4676 15.4669 31.3876 15.3069 31.2142C15.1469 31.0409 15.0536 30.8276 15.0536 30.6009V26.8809H14.9336V28.3076C14.9336 28.5476 14.8536 28.7609 14.6802 28.9209C14.5069 29.0809 14.3069 29.1742 14.0669 29.1742C13.8269 29.1742 13.6136 29.0809 13.4536 28.9209C13.2936 28.7476 13.2002 28.5342 13.2002 28.3076V27.3342L11.9469 29.0409C11.8669 29.1476 11.7602 29.2276 11.6402 29.2942C11.5202 29.3609 11.3869 29.3876 11.2536 29.3876C11.1202 29.3876 10.9869 29.3609 10.8669 29.2942C10.7469 29.2409 10.6402 29.1476 10.5602 29.0409C7.78689 25.2276 9.52022 21.6409 10.7336 19.9076C10.1202 12.2542 14.8269 8.01424 15.5869 7.38758L15.7069 7.30758C15.7736 7.26758 15.8269 7.26758 15.8936 7.26758C15.9602 7.26758 16.0802 7.30758 16.0802 7.30758L15.9602 7.58758L16.0802 7.32091ZM12.1736 25.8542C11.7602 24.8142 11.4536 23.7342 11.2002 22.6409H11.1869C10.7202 23.8542 10.5602 25.3609 11.3336 26.9876L12.1736 25.8542ZM15.8936 9.52091C15.6002 9.82758 15.3202 10.1609 15.0669 10.5076H16.7202C16.4669 10.1609 16.1869 9.84091 15.8936 9.52091ZM20.5869 22.6409C20.3469 23.7342 20.0269 24.8142 19.6136 25.8542H19.6002L20.4402 26.9876C21.2136 25.3742 21.0536 23.8542 20.5869 22.6409ZM13.7469 25.1742H18.0269C20.3202 19.2809 19.2669 14.9609 17.8136 12.2276H13.9602C12.5202 14.9609 11.4536 19.2809 13.7469 25.1742Z" fill="#4D4D4D"/>
</svg>
