<svg width="141" height="124" viewBox="0 0 141 124" fill="none" xmlns="http://www.w3.org/2000/svg">
    <path d="M117.604 27.3098L91.6886 1.35561C90.2849 -0.0534325 88.0018 -0.0534325 86.5981 1.35561L60.6823 27.3098L38.3505 49.6745C36.088 51.9423 37.6923 55.8146 40.8958 55.8146H52.887C54.8718 55.8146 56.4864 57.4242 56.4864 59.4143V119.214C56.4864 121.199 58.0958 122.814 60.0858 122.814H118.206C120.191 122.814 121.805 121.204 121.805 119.214V59.4143C121.805 57.4293 123.415 55.8146 125.405 55.8146H137.396C140.6 55.8146 142.204 51.9423 139.941 49.6745L117.61 27.3098H117.604Z" fill="#FAF13E"/>
    <path d="M100.922 51.799L99.9819 50.8472C99.931 50.7957 99.8497 50.7957 99.7989 50.8472L98.8587 51.799L98.0506 52.6222C97.9693 52.7045 98.0252 52.8486 98.1421 52.8486H99.184C99.2551 52.8486 99.3161 52.9052 99.3161 52.9824V103.872C99.3161 103.944 99.372 104.006 99.4482 104.006H100.338C100.409 104.006 100.47 103.949 100.47 103.872V52.9824C100.47 52.9103 100.526 52.8486 100.602 52.8486H101.644C101.761 52.8486 101.817 52.7045 101.735 52.6222L100.927 51.799H100.922Z" fill="white"/>
    <path d="M93.0404 14.6078L91.6988 13.2495C91.6271 13.1772 91.5094 13.1772 91.4326 13.2495L90.091 14.6078L88.9338 15.7801C88.8161 15.8989 88.898 16.1003 89.067 16.1003H90.5621C90.6645 16.1003 90.7464 16.183 90.7464 16.2863V88.7752C90.7464 88.8785 90.8284 88.9612 90.9308 88.9612H92.2006C92.303 88.9612 92.3849 88.8785 92.3849 88.7752V16.2863C92.3849 16.183 92.4669 16.1003 92.5693 16.1003H94.0644C94.2283 16.1003 94.3153 15.8989 94.1975 15.7801L93.0404 14.6078Z" fill="white"/>
    <path d="M79.1733 54.3745L76.7544 51.9815C76.624 51.8525 76.4103 51.8525 76.28 51.9815L73.861 54.3745L71.7809 56.4374C71.5724 56.6488 71.7183 57.0047 72.0207 57.0047H74.7055C74.8932 57.0047 75.0392 57.1543 75.0392 57.3348V89.109C75.0392 89.9187 75.7013 90.5737 76.5198 90.5737C77.3383 90.5737 78.0003 89.9187 78.0003 89.109V57.3348C78.0003 57.1491 78.1515 57.0047 78.334 57.0047H81.0188C81.316 57.0047 81.4672 56.6488 81.2586 56.4374L79.1786 54.3745H79.1733Z" fill="white"/>
    <path d="M48.3999 106.363C48.3999 106.363 43.022 104.584 34.0287 103.145C34.0287 103.145 31.1678 102.691 25.9468 98.2272C25.9468 98.2272 6.87863 77.4848 0.75293 70.0732C0.75293 70.0732 3.55373 65.4994 8.92499 70.8911L11.0448 72.9544C11.0448 72.9544 9.98655 68.8713 11.876 63.6465C11.876 63.6465 16.416 63.6465 16.2658 69.4723C16.2658 69.4723 17.1371 73.572 17.9316 73.9359C17.9316 73.9359 18.5759 70.0732 19.4839 67.9198C19.4839 67.9198 23.59 68.6877 23.8904 73.4151C23.8904 73.4151 24.8919 77.1242 26.4074 77.6851L26.0302 75.7888C26.6511 74.8774 28.7976 74.8206 31.0243 76.8104C31.0243 76.8104 41.8369 88.245 50.3895 91.0026L58.0341 107.228L48.4066 106.36L48.3999 106.363Z" fill="#E89E73"/>
    <path d="M12.624 63.7466C12.1767 63.6465 11.8763 63.6465 11.8763 63.6465C10.1938 68.2971 10.8447 72.0396 11.0117 72.8075L13.8225 75.9591C10.8447 71.8426 12.407 64.6781 12.6274 63.75L12.624 63.7466Z" fill="#E89E73"/>
    <path d="M14.7403 76.9886L13.8223 75.957C14.0893 76.3276 14.3964 76.6748 14.7403 76.9886Z" fill="#F48787"/>
    <path d="M55.6205 107.014C48.7938 99.7557 40.9923 97.8093 40.9923 97.8093C34.4092 95.7094 17.6679 87.0859 17.6679 87.0859L2.0415 68.834C1.1869 69.3648 0.75293 70.0726 0.75293 70.0726C6.88197 77.4842 25.9468 98.2266 25.9468 98.2266C31.1678 102.69 34.0287 103.144 34.0287 103.144C43.0186 104.583 48.3999 106.363 48.3999 106.363L55.6205 107.014Z" fill="#E89E73"/>
    <path d="M19.4805 67.9199C18.6626 69.8596 18.0584 73.1882 17.9482 73.8258L20.1148 76.3264C18.4156 73.4052 20.2149 68.1536 20.2183 68.1503C19.7809 67.9767 19.4805 67.9199 19.4805 67.9199Z" fill="#E89E73"/>
    <path d="M28.7253 79.6604L28.3848 79.3633C28.4916 79.4735 28.6051 79.5769 28.7253 79.6604Z" fill="#F48787"/>
    <path d="M26.7535 75.2846C26.4297 75.3881 26.1794 75.5617 26.0225 75.7887L26.3897 77.6216L28.3826 79.361C27.3244 78.2693 26.8837 76.0725 26.7535 75.2812V75.2846Z" fill="#E89E73"/>
    <path d="M18.6671 81.4393C18.6204 81.4393 18.577 81.4226 18.5436 81.3859L10.919 73.0662C10.8556 72.9994 10.8623 72.8926 10.929 72.8292C10.9958 72.7657 11.1026 72.7724 11.166 72.8392L18.7906 81.1589C18.8541 81.2256 18.8474 81.3325 18.7806 81.3959C18.7472 81.426 18.7072 81.4393 18.6671 81.4393Z" fill="#011721"/>
    <path d="M26.2136 82.6935C26.1702 82.6935 26.1301 82.6768 26.0967 82.6467C19.8442 76.4704 17.8212 74.07 17.8012 74.0466C17.7411 73.9765 17.7511 73.8697 17.8212 73.8129C17.8913 73.7528 17.9981 73.7628 18.0549 73.8329C18.0749 73.8563 20.0946 76.2467 26.3304 82.4097C26.3972 82.4731 26.3972 82.5799 26.3304 82.6467C26.297 82.6801 26.2536 82.6968 26.2102 82.6968L26.2136 82.6935Z" fill="#011721"/>
    <path d="M31.4712 82.4664C31.4278 82.4664 31.3844 82.4497 31.351 82.4163C28.4033 79.4316 26.3203 77.8358 26.3002 77.8191C26.2268 77.7624 26.2135 77.6589 26.2669 77.5854C26.3236 77.512 26.4271 77.4986 26.5005 77.552C26.5206 77.5687 28.6237 79.1779 31.588 82.1793C31.6515 82.246 31.6515 82.3495 31.588 82.4163C31.5547 82.4497 31.5146 82.463 31.4712 82.463V82.4664Z" fill="#011721"/>
    <path d="M35.1694 122.742C35.1694 122.742 38.8615 113.237 29.7046 107.15C29.7046 107.15 28.1524 109.15 28.603 110.052C28.603 110.052 21.3523 98.2132 11.9952 97.6289C11.9952 97.6289 9.51152 103.919 12.5059 109.114C12.5059 109.114 10.4596 109.815 9.65507 107.057C9.65507 107.057 8.26635 114.118 12.5059 120.438C12.5059 120.438 10.3962 120.849 10.2593 122.742H35.166H35.1694Z" fill="#51CF66"/>
    <path fill-rule="evenodd" clip-rule="evenodd" d="M11.9971 97.6328C11.9971 97.6328 9.51348 103.923 12.5079 109.117C12.5079 109.117 10.4615 109.819 9.65702 107.061C9.65702 107.061 8.26831 114.122 12.5079 120.442C12.5079 120.442 10.3981 120.852 10.2612 122.745H35.168C9.00606 117.701 11.9971 97.6361 11.9971 97.6361V97.6328Z" fill="#4AB744"/>
    <path d="M55.6211 100.09C55.6211 100.09 58.9594 87.8844 79.0924 82.1288L79.1625 86.8996L81.7496 81.1372C81.7496 81.1372 88.7867 79.6983 95.8671 80.9302C95.8671 80.9302 94.3282 93.166 84.7908 106.283L76.9425 104.49L82.7344 108.984C82.7344 108.984 76.2682 123.39 56.6059 122.726L55.6278 100.094L55.6211 100.09Z" fill="#4AB744"/>
    <path fill-rule="evenodd" clip-rule="evenodd" d="M81.7457 81.1347L79.1586 86.897L79.0885 82.1262C58.9554 87.8852 55.6172 100.088 55.6172 100.088L55.921 107.122C88.8328 105.079 95.8599 80.9244 95.8599 80.9244C88.7828 79.6924 81.7424 81.1313 81.7424 81.1313L81.7457 81.1347Z" fill="#51CF66"/>
    <path d="M48.8047 58.5781C48.8047 58.5781 50.4264 61.0662 52.2003 62.2832L52.3941 63.4021H51.4495C51.4495 63.4021 49.3862 60.411 48.8071 58.8873V58.5781H48.8047Z" fill="#042230"/>
    <path d="M49.0549 59.4998C48.4686 57.5246 48.5912 55.3948 49.4622 53.5275C49.499 53.449 49.5383 53.368 49.5775 53.2895C50.7552 50.9168 51.8151 48.0214 52.6272 44.4513L51.9844 44.2305C51.9844 44.2305 49.1016 52.9533 41.7191 61.9388C41.5252 62.1743 41.4713 62.4958 41.5694 62.7853C41.8221 63.5361 42.6735 64.9961 45.5268 66.4683L45.4729 65.4157C45.4729 65.4157 43.3163 63.2981 43.2893 62.8098L45.2447 60.6751C45.2447 60.6751 45.5342 67.0253 45.6814 69.1404C45.8016 70.8555 45.9145 71.7585 46.945 75.9003C45.5808 76.6192 44.2167 77.1787 44.2167 77.1787L44.1848 78.2853C45.306 78.1332 46.5598 77.9737 47.4283 77.7307C48.1079 80.1771 49.0402 83.0209 50.3136 86.0929H51.0472C51.0472 86.0929 50.9392 81.4604 50.6522 76.472C52.0359 75.7359 52.6297 75.093 52.6297 75.093C52.35 72.5485 51.8912 70.2151 51.4471 68.3576C50.9294 66.1861 49.7959 61.9854 49.0574 59.4973L49.0549 59.4998Z" fill="white"/>
    <path d="M45.9359 56.1627L45.8255 55.6131L45.3691 55.3555L45.401 55.9615L45.8549 56.2879L45.9359 56.1627Z" fill="white"/>
    <path d="M45.3694 55.3546C45.3694 55.3546 45.0455 54.6676 44.2482 55.0528C44.1991 55.0749 44.1647 55.1215 44.15 55.1731C44.096 55.3694 43.9905 55.8822 44.2187 56.368C44.2187 56.368 44.7168 57.1925 45.5191 56.795L45.8527 56.287C45.8527 56.287 45.4528 55.9337 45.3669 55.3546H45.3694Z" fill="#011721"/>
    <path d="M44.1797 78.2838C45.3009 78.1317 46.5547 77.9722 47.4232 77.7293C48.1028 80.1756 49.0351 83.0195 50.3085 86.0915H51.0421C51.0421 86.0915 50.9341 81.4589 50.647 76.4706C52.0308 75.7344 52.6245 75.0916 52.6245 75.0916C52.3449 72.5471 51.8861 70.2136 51.442 68.3562C51.3242 67.8581 51.1721 67.2545 51.0028 66.592C47.4134 66.0816 45.6542 68.761 45.6542 68.761C45.664 68.896 45.6714 69.0236 45.6788 69.1365C45.799 70.8516 45.9118 71.7546 46.9423 75.8964C45.5782 76.6153 44.214 77.1748 44.214 77.1748L44.1821 78.2814L44.1797 78.2838Z" fill="#05293C"/>
    <path d="M46.9428 76.0232C46.9011 76.0232 46.8594 76.0011 46.8373 75.9643C46.803 75.9054 46.8226 75.8318 46.879 75.795L49.0184 74.5142C49.2761 74.3596 49.4135 74.0676 49.3693 73.7731L49.07 71.7955C49.0602 71.7292 49.1068 71.6654 49.173 71.6556C49.2393 71.6458 49.303 71.6924 49.3129 71.7587L49.6122 73.7363C49.6711 74.1314 49.4895 74.5191 49.146 74.7252L47.0066 76.006C46.987 76.0183 46.9649 76.0232 46.9428 76.0232Z" fill="white"/>
    <path d="M51.9824 44.233C51.9824 44.233 52.1615 43.3153 52.3946 42.8516C52.3946 42.8516 52.9736 43.119 52.6252 44.5004L51.9824 44.233Z" fill="#011721"/>
    <path d="M44.2116 77.1788L44.0006 77.1346C43.7086 77.0733 43.5394 77.3138 43.4707 77.6033L42.8254 79.4607C42.7763 79.6644 42.899 79.7503 43.0585 79.6153L44.1797 78.2854L44.2116 77.1788Z" fill="white"/>
    <path d="M50.3076 86.0938V86.5354C50.3076 86.9354 50.4475 87.3255 50.7051 87.6322L51.2129 88.3781C51.3602 88.5548 51.6423 88.4174 51.5957 88.1917L51.0412 86.0938H50.3076Z" fill="white"/>
    <path d="M52.625 75.0955C52.3453 72.551 51.8865 70.2175 51.4424 68.3601C51.3247 67.862 51.1726 67.2584 51.0033 66.5959C47.4138 66.0855 45.6547 68.765 45.6547 68.765C45.6645 68.8999 45.6719 69.0275 45.6792 69.1404C45.7234 69.7759 45.7676 70.301 45.8583 70.9193C45.8583 70.9193 48.3633 68.7723 50.1078 70.3451C50.4782 70.6813 50.726 71.1303 50.8512 71.6137C50.937 71.9449 51.0425 72.4136 51.1235 72.973C51.2315 73.7116 50.9468 74.4526 50.3776 74.9335C49.2883 75.8537 47.1857 77.2891 44.2145 77.8363H44.1949L44.1826 78.2853C45.3039 78.1332 46.5576 77.9737 47.4261 77.7307C47.4261 77.7307 49.3545 77.2768 50.65 76.472C52.0337 75.7359 52.6275 75.093 52.6275 75.093L52.625 75.0955Z" fill="#042230"/>
    <path d="M49.5749 53.2891C49.5749 53.2891 45.7008 59.3472 45.5732 67.4125C45.61 68.075 45.6444 68.6565 45.6738 69.0835L47.3667 68.5142L51.2751 67.6726C50.7084 65.3882 49.7196 61.7445 49.0523 59.4994C48.4659 57.5241 48.5886 55.3943 49.4595 53.5271C49.4963 53.4486 49.5356 53.3676 49.5749 53.2891Z" fill="#E5E5E5"/>
    <path d="M44.7262 78.3328C44.6575 78.3328 44.6035 78.2789 44.6035 78.2102V77.5133C44.6035 77.4446 44.6575 77.3906 44.7262 77.3906C44.7949 77.3906 44.8489 77.4446 44.8489 77.5133V78.2102C44.8489 78.2789 44.7949 78.3328 44.7262 78.3328Z" fill="white"/>
    <path d="M51.1305 85.5911H50.4264C50.3577 85.5911 50.3037 85.5371 50.3037 85.4684C50.3037 85.3997 50.3577 85.3457 50.4264 85.3457H51.1305C51.1992 85.3457 51.2532 85.3997 51.2532 85.4684C51.2532 85.5371 51.1992 85.5911 51.1305 85.5911Z" fill="white"/>
    <path d="M45.5393 66.869C45.4755 66.869 45.4191 66.8175 45.4166 66.7537L45.3087 64.6435C45.3062 64.5748 45.3577 64.5184 45.424 64.5159C45.4853 64.511 45.5491 64.565 45.5516 64.6313L45.6595 66.7414C45.662 66.8101 45.6105 66.8666 45.5442 66.869C45.5442 66.869 45.5393 66.869 45.5369 66.869H45.5393Z" fill="#011721"/>
    <path d="M77.6983 122.741C77.6983 122.741 73.0749 100.57 63.3939 93.0783C63.3939 93.0783 57.0913 85.2494 44.4894 88.1707C44.4894 88.1707 37.222 89.3358 33.3629 88.1707L22.7339 85.0558C22.7339 85.0558 17.5496 83.5033 15.6602 88.8784C15.6602 88.8784 38.3703 96.0697 44.4927 101.248C44.4927 101.248 46.2954 103.107 48.4018 106.356C48.4018 106.356 55.4388 111.083 55.4388 122.738H77.7017L77.6983 122.741Z" fill="#F7B690"/>
    <path d="M16.4083 87.3295C16.1246 87.7702 15.8709 88.281 15.6572 88.8819C15.6572 88.8819 38.3674 96.0732 44.4898 101.251C44.4898 101.251 46.2924 103.111 48.3989 106.359C48.3989 106.359 55.4359 111.087 55.4359 122.742H63.8917C58.3302 96.9479 23.6123 88.7584 16.4083 87.3262V87.3295Z" fill="#F7B690"/>
    <path d="M74.025 122.816C74.025 122.816 72.9401 120.222 75.634 118.562C75.634 118.562 76.0914 119.11 75.9579 119.353C75.9579 119.353 78.091 116.122 80.8451 115.965C80.8451 115.965 81.5762 117.681 80.6949 119.1C80.6949 119.1 81.2957 119.29 81.5328 118.539C81.5328 118.539 81.94 120.465 80.6949 122.191C80.6949 122.191 81.3158 122.305 81.3558 122.819H74.0283L74.025 122.816Z" fill="#009239"/>
    <path d="M29.1504 113.977H26.3721V123.631H29.1504V113.977Z" fill="#586672"/>
    <path opacity="0.3" d="M27.1578 113.977H26.7334V123.631H27.1578V113.977Z" fill="white"/>
    <path opacity="0.5" d="M28.7827 113.977H28.1299V123.631H28.7827V113.977Z" fill="black"/>
    <path d="M38.8604 117.936L14.5677 119.554L14.3486 119.209L38.7149 114.723L39.171 117.084L38.8604 117.936Z" fill="#111B1F"/>
    <path d="M44.8182 88.9265L44.2535 88.8203L22.8426 101.039L14.3486 119.209L39.171 117.084L44.8182 88.9265Z" fill="#3E4E58"/>
    <path d="M22.6475 100.898L44.2535 88.8203L42.8562 95.6761L20.3116 105.897L22.6475 100.897V100.898ZM17.4888 111.94L41.0063 104.759L42.7792 96.052L20.1893 106.16L17.4897 111.939L17.4888 111.94ZM14.1895 119.001L38.5805 116.667L40.9079 105.243L17.3459 112.244L14.1895 119.001Z" fill="#E3E5EE"/>
    <path d="M39.8147 92.6818L39.4981 92.73L39.7736 91.6889L40.1587 91.3588L42.9352 89.8201L43.2963 89.7441L43.0627 90.8195L42.634 91.1782L39.8138 92.6834L39.8147 92.6818ZM39.2962 92.8378L39.5734 91.7992L39.2671 91.854L36.8259 93.2072L36.476 93.5103L36.1662 94.5146L36.4366 94.4852L38.9094 93.1655L39.2953 92.8386L39.2962 92.8378ZM35.9882 94.6102L36.2997 93.6076L36.0379 93.6435L33.8731 94.8439L33.5548 95.1234L33.2211 96.0925L33.4521 96.0762L35.6391 94.9101L35.9874 94.611L35.9882 94.6102ZM33.0628 96.1775L33.3973 95.2092L33.1714 95.232L31.2402 96.3025L30.9493 96.5615L30.5977 97.498L30.7979 97.4923L32.7445 96.4529L33.0619 96.1767L33.0628 96.1775ZM30.4565 97.5748L30.8081 96.64L30.6139 96.6514L28.8795 97.6124L28.6117 97.8526L28.2472 98.758L28.4209 98.7613L30.1656 97.8306L30.4565 97.5748ZM28.1206 98.8258L28.4851 97.9229L28.3148 97.9253L26.7498 98.7931L26.5008 99.0187L26.1295 99.8938L26.2801 99.9053L27.8527 99.0661L28.1206 98.8266V98.8258ZM26.014 99.9551L26.3862 99.0816L26.2373 99.0767L24.8169 99.8636L24.5859 100.076L24.2094 100.922L24.3395 100.939L25.7658 100.179L26.014 99.9559V99.9551ZM24.105 100.977L24.4823 100.133L24.3523 100.121L23.0577 100.839L22.8412 101.039L22.4613 101.857L22.576 101.879L23.8731 101.187L24.1033 100.978L24.105 100.977ZM42.3003 92.6826L42.7376 92.323L42.9806 91.1962L42.6152 91.2608L39.7924 92.7635L39.3997 93.0944L39.1113 94.1828L39.4322 94.1461L42.3003 92.6834V92.6826ZM36.0062 95.8939L38.5132 94.6151L38.9051 94.2874L39.1961 93.2023L38.8855 93.2456L36.4109 94.5636L36.0567 94.8668L35.7333 95.9144L36.0054 95.8947L36.0062 95.8939ZM33.103 96.4308L32.7547 97.44L32.9875 97.4334L35.1993 96.305L35.5527 96.0051L35.877 94.9599L35.6126 94.9869L33.4247 96.1513L33.1021 96.43L33.103 96.4308ZM30.4736 97.8248L30.1091 98.7964L30.3093 98.8005L32.2739 97.7979L32.5947 97.5217L32.943 96.515L32.7162 96.528L30.7688 97.565L30.4736 97.824V97.8248ZM28.1188 99.0726L27.7424 100.01L27.9143 100.022L29.6718 99.1257L29.967 98.8691L30.3324 97.9L30.1365 97.9025L28.3909 98.8315L28.1188 99.0726ZM25.9977 100.197L25.6135 101.102L25.7633 101.12L27.3436 100.314L27.614 100.075L27.9914 99.1396L27.8219 99.1331L26.2484 99.9706L25.9968 100.196L25.9977 100.197ZM24.0768 101.216L23.6874 102.089L23.8175 102.113L25.2473 101.384L25.498 101.161L25.883 100.258L25.7359 100.245L24.3104 101.004L24.0776 101.217L24.0768 101.216ZM22.5469 101.943L22.3287 102.142L21.9377 102.986L22.0515 103.014L23.3503 102.352L23.5831 102.142L23.9724 101.271L23.844 101.252L22.5477 101.943H22.5469ZM41.9478 94.2621L42.3945 93.9009L42.6503 92.7185L42.279 92.7708L39.4091 94.2319L39.0087 94.5636L38.7075 95.7019L39.0326 95.679L41.9478 94.2629V94.2621ZM38.4987 95.8032L38.8025 94.6682L38.4893 94.6993L35.9805 95.9765L35.6195 96.2804L35.2823 97.373L35.557 97.3656L38.0983 96.1317L38.4978 95.804L38.4987 95.8032ZM32.6332 97.793L32.2713 98.843L32.5049 98.8479L34.7398 97.7627L35.1001 97.462L35.4381 96.372L35.1728 96.3867L32.9601 97.5127L32.6332 97.7921V97.793ZM29.9807 99.1363L29.6017 100.146L29.8019 100.16L31.7827 99.1984L32.1096 98.9222L32.4724 97.8755L32.2456 97.8779L30.2802 98.8781L29.9816 99.1372L29.9807 99.1363ZM27.6106 100.337L27.2196 101.307L27.3924 101.33L29.1602 100.472L29.4579 100.215L29.8378 99.2091L29.6428 99.2017L27.8853 100.096L27.6106 100.337ZM25.4783 101.417L25.0813 102.352L25.2293 102.38L26.8166 101.609L27.0912 101.37L27.4822 100.401L27.3137 100.386L25.7316 101.191L25.4792 101.416L25.4783 101.417ZM23.5514 102.393L23.151 103.294L23.2793 103.327L24.7125 102.631L24.9658 102.408L25.362 101.475L25.2156 101.454L23.7867 102.181L23.5505 102.393H23.5514ZM22.0198 103.08L21.8007 103.28L21.3977 104.15L21.5098 104.186L22.8104 103.555L23.0449 103.345L23.447 102.446L23.3204 102.418L22.0206 103.079L22.0198 103.08ZM41.5799 95.9225L42.036 95.5597L42.3055 94.3169L41.9273 94.3553L39.0095 95.7673L38.6022 96.1007L38.2856 97.2929L38.6134 97.2839L41.579 95.9217L41.5799 95.9225ZM38.0735 97.3901L38.3917 96.2012L38.0752 96.2192L35.5313 97.4506L35.1651 97.7546L34.8134 98.8953L35.0898 98.901L37.667 97.7186L38.0735 97.3901ZM34.6286 98.9819L34.9811 97.8444L34.7142 97.8477L32.4767 98.9304L32.1447 99.2107L31.7682 100.303L32.0026 100.321L34.2624 99.2834L34.6286 98.9827V98.9819ZM29.4691 100.498L29.0755 101.546L29.2765 101.571L31.2745 100.654L31.6048 100.378L31.983 99.2883L31.7553 99.2802L29.7728 100.239L29.4699 100.498H29.4691ZM27.0835 101.647L26.6779 102.653L26.8491 102.686L28.6297 101.87L28.9309 101.613L29.3253 100.567L29.1302 100.55L27.3616 101.406L27.0835 101.647V101.647ZM24.9418 102.678L24.5294 103.646L24.6774 103.684L26.2715 102.952L26.5487 102.714L26.9535 101.71L26.7849 101.684L25.1968 102.453L24.941 102.678H24.9418ZM23.0089 103.609L22.5948 104.54L22.7214 104.582L24.1589 103.922L24.4147 103.7L24.8263 102.734L24.6809 102.704L23.2476 103.398L23.0089 103.609V103.609ZM21.2566 104.453L20.8407 105.35L20.9511 105.396L22.2534 104.797L22.4904 104.589L22.9054 103.66L22.7796 103.626L21.479 104.255L21.2574 104.453L21.2566 104.453ZM40.957 98.7319L41.4284 98.3699L41.7194 97.0224L41.3326 97.0347L38.3344 98.3584L37.9152 98.6918L37.5737 99.978L37.9083 99.9952L40.957 98.7335V98.7319ZM37.3573 100.067L37.7004 98.7842L37.3778 98.7792L34.7783 99.9273L34.4027 100.231L34.0245 101.456L34.3043 101.485L36.938 100.395L37.3581 100.067H37.3573ZM33.8363 101.535L34.2145 100.314L33.9441 100.296L31.6689 101.3L31.3292 101.58L30.9271 102.748L31.1624 102.786L33.4607 101.835L33.8363 101.535ZM30.7611 102.817L31.1641 101.651L30.9356 101.624L28.9283 102.509L28.6185 102.769L28.1993 103.884L28.3995 103.929L30.424 103.092L30.7628 102.817H30.7611ZM26.209 103.825L25.7804 104.893L25.9498 104.944L27.7458 104.201L28.0538 103.946L28.4739 102.833L28.2797 102.798L26.494 103.586L26.2108 103.826L26.209 103.825ZM24.0537 104.771L23.6173 105.794L23.7636 105.848L25.3671 105.184L25.6486 104.947L26.0781 103.882L25.9121 103.841L24.3138 104.547L24.0537 104.771ZM22.1139 105.621L21.6775 106.604L21.8007 106.661L23.2425 106.064L23.5018 105.843L23.9373 104.822L23.7936 104.776L22.3552 105.411L22.1131 105.621H22.1139ZM21.8863 105.618L20.5849 106.193L20.3607 106.39L19.9226 107.335L20.0304 107.394L21.3327 106.855L21.5731 106.648L22.0095 105.668L21.8872 105.619L21.8863 105.618ZM40.5377 100.627L41.0212 100.265L41.3275 98.8438L40.9339 98.8381L37.8826 100.096L37.4548 100.429L37.098 101.779L37.4351 101.815L40.5377 100.627ZM36.8773 101.863L37.2375 100.517L36.9115 100.495L34.2761 101.582L33.8936 101.886L33.4983 103.167L33.7798 103.213L36.4503 102.192L36.8773 101.863ZM33.3066 103.242L33.7037 101.964L33.4316 101.93L31.1299 102.878L30.7868 103.157L30.3666 104.376L30.6019 104.43L32.9259 103.54L33.3066 103.242ZM30.1989 104.44L30.6199 103.224L30.3914 103.183L28.3661 104.017L28.053 104.275L27.6174 105.436L27.8159 105.495L29.8558 104.714L30.1989 104.44V104.44ZM25.6298 105.267L25.184 106.376L25.3525 106.438L27.158 105.748L27.4703 105.494L27.9066 104.336L27.7116 104.288L25.9164 105.028L25.6298 105.267V105.267ZM23.4667 106.151L23.0158 107.213L23.1587 107.278L24.7681 106.663L25.0531 106.428L25.4997 105.321L25.3337 105.268L23.7294 105.929L23.4667 106.152V106.151ZM21.5244 106.947L21.0717 107.963L21.1941 108.031L22.6367 107.479L22.8994 107.259L23.3503 106.201L23.2083 106.143L21.7674 106.737L21.5244 106.947ZM19.9953 107.469L19.7703 107.664L19.3185 108.64L19.4238 108.707L20.7243 108.209L20.9665 108.004L21.42 106.99L21.2993 106.931L19.997 107.469H19.9953ZM40.0936 102.628L40.5882 102.266L40.9116 100.767L40.5129 100.739L37.4078 101.922L36.9722 102.254L36.5957 103.673L36.9371 103.729L40.0936 102.627V102.628ZM36.3716 103.753L36.7498 102.337L36.4212 102.297L33.749 103.315L33.3588 103.618L32.9447 104.962L33.2288 105.025L35.936 104.08L36.3716 103.753ZM32.7522 105.029L33.168 103.69L32.8934 103.64L30.5686 104.525L30.2195 104.804L29.7805 106.077L30.0158 106.147L32.3646 105.327L32.7522 105.029ZM29.612 106.136L30.0518 104.867L29.8233 104.81L27.7826 105.587L27.4651 105.843L27.0108 107.054L27.2076 107.128L29.2628 106.41L29.612 106.136ZM25.0282 106.764L24.5645 107.917L24.7313 107.992L26.5453 107.359L26.861 107.108L27.3162 105.901L27.1237 105.839L25.3175 106.526L25.0282 106.764V106.764ZM24.4336 107.963L24.8965 106.813L24.7322 106.748L23.1227 107.361L22.8566 107.583L22.3894 108.684L22.5306 108.761L24.1435 108.198L24.4319 107.963H24.4336ZM20.9126 108.318L20.4437 109.37L20.5635 109.448L22.007 108.944L22.2722 108.725L22.7402 107.627L22.5999 107.56L21.1573 108.11L20.9117 108.319L20.9126 108.318ZM19.3861 108.783L19.1594 108.98L18.6913 109.987L18.794 110.066L20.0937 109.611L20.3384 109.406L20.8082 108.356L20.6884 108.287L19.3878 108.783L19.3861 108.783ZM39.6239 104.74L40.1296 104.38L40.4718 102.795L40.0662 102.745L36.9055 103.842L36.4606 104.173L36.0644 105.669L36.4101 105.747L39.6239 104.739V104.74ZM35.8368 105.741L36.2364 104.251L35.9044 104.19L33.1945 105.132L32.7984 105.434L32.3646 106.843L32.6486 106.927L35.3936 106.067L35.8368 105.742V105.741ZM32.1686 106.904L32.6042 105.499L32.3295 105.432L29.9799 106.247L29.6256 106.524L29.1662 107.856L29.4015 107.944L31.7742 107.201L32.1686 106.904ZM28.9959 107.91L29.4562 106.582L29.2278 106.509L27.1716 107.223L26.8499 107.478L26.375 108.741L26.5727 108.829L28.6425 108.181L28.9959 107.909V107.91ZM26.227 108.788L26.701 107.529L26.5102 107.453L24.6954 108.083L24.4028 108.32L23.921 109.52L24.0853 109.61L25.9079 109.038L26.2287 108.788H26.227ZM23.7876 109.561L24.2701 108.365L24.1076 108.287L22.4938 108.848L22.226 109.068L21.74 110.211L21.8795 110.301L23.4958 109.794L23.7867 109.561H23.7876ZM21.6228 110.248L22.1079 109.109L21.971 109.029L20.5275 109.53L20.2803 109.737L19.7943 110.827L19.9123 110.917L21.3558 110.465L21.6228 110.248ZM19.689 110.861L20.1742 109.773L20.0569 109.692L18.7572 110.144L18.5288 110.339L18.0453 111.381L18.1454 111.471L19.4426 111.064L19.6899 110.861H19.689ZM38.8238 108.349L39.3484 107.992L39.724 106.255L39.3081 106.164L36.0575 107.103L35.5981 107.431L35.166 109.06L35.5176 109.178L38.823 108.35L38.8238 108.349ZM34.9332 109.118L35.3679 107.496L35.0308 107.399L32.2619 108.199L31.8555 108.497L31.3849 110.021L31.6715 110.142L34.4755 109.439L34.9341 109.117L34.9332 109.118ZM31.1846 110.072L31.6569 108.554L31.3806 108.453L28.9933 109.142L28.6297 109.416L28.1368 110.848L28.3713 110.969L30.7799 110.365L31.1846 110.072ZM27.9631 110.893L28.4577 109.466L28.2301 109.364L26.15 109.963L25.8214 110.217L25.3149 111.568L25.5083 111.686L27.6012 111.162L27.9631 110.893ZM25.1643 111.607L25.6717 110.259L25.4817 110.158L23.6549 110.685L23.3563 110.919L22.8421 112.198L23.0038 112.314L24.8366 111.853L25.1634 111.607H25.1643ZM22.7103 112.232L23.2237 110.957L23.0645 110.856L21.4465 111.324L21.1744 111.542L20.6576 112.756L20.7928 112.868L22.4125 112.462L22.7094 112.232H22.7103ZM20.5404 112.785L21.0572 111.575L20.9229 111.475L19.4794 111.891L19.2287 112.095L18.7153 113.25L18.8274 113.36L20.2691 112.998L20.5395 112.784L20.5404 112.785ZM18.6092 113.277L19.1226 112.126L19.0096 112.027L17.715 112.401L17.4823 112.593L16.9723 113.694L17.0673 113.802L18.3593 113.478L18.6092 113.277ZM38.2788 110.806L38.8153 110.455L39.2149 108.609L38.7922 108.487L35.4834 109.309L35.0137 109.634L34.5576 111.354L34.9127 111.504L38.2788 110.808V110.806ZM34.3206 111.403L34.7792 109.691L34.4395 109.567L31.633 110.264L31.2189 110.56L30.7243 112.165L31.0109 112.31L33.8534 111.722L34.3206 111.404V111.403ZM30.5224 112.206L31.0186 110.608L30.7414 110.485L28.331 111.083L27.9623 111.354L27.4446 112.858L27.6782 112.999L30.1099 112.497L30.5224 112.206V112.206ZM27.27 112.894L27.7894 111.396L27.5618 111.273L25.4698 111.793L25.1369 112.043L24.6064 113.457L24.7981 113.594L26.9038 113.158L27.2709 112.894H27.27ZM24.455 113.489L24.9863 112.08L24.7981 111.96L22.9644 112.415L22.6632 112.647L22.1267 113.98L22.2859 114.114L24.1247 113.733L24.4558 113.488L24.455 113.489ZM21.9933 114.009L22.5298 112.68L22.3732 112.562L20.7534 112.965L20.4771 113.181L19.9414 114.442L20.0732 114.572L21.6929 114.237L21.9933 114.01V114.009ZM19.8233 114.468L20.359 113.21L20.2281 113.095L18.7863 113.453L18.533 113.655L18 114.853L18.1103 114.978L19.5495 114.681L19.8233 114.468ZM17.8947 114.876L18.4278 113.681L18.3183 113.569L17.0271 113.891L16.7935 114.08L16.2656 115.221L16.3571 115.341L17.644 115.075L17.8956 114.876H17.8947ZM37.6987 113.419L38.2497 113.073L38.675 111.109L38.2463 110.953L34.8759 111.641L34.3967 111.963L33.9141 113.785L34.271 113.966L37.6987 113.42V113.419ZM33.1945 114.137L33.6737 113.824L34.158 112.01L33.8157 111.857L30.9707 112.438L30.5489 112.73L30.0278 114.422L30.3144 114.595L33.1937 114.137H33.1945ZM29.825 114.454L30.3478 112.77L30.0706 112.622L27.6371 113.118L27.2623 113.386L26.7182 114.964L26.9509 115.13L29.4049 114.74L29.825 114.454ZM26.5436 114.994L27.0886 113.422L26.8619 113.277L24.7562 113.707L24.419 113.954L23.8646 115.433L24.0545 115.593L26.1705 115.255L26.5436 114.995V114.994ZM23.7131 115.458L24.2676 113.984L24.0819 113.844L22.2431 114.22L21.9385 114.45L21.3789 115.841L21.5355 115.993L23.3777 115.7L23.7131 115.458ZM21.2454 115.863L21.805 114.476L21.651 114.341L20.0296 114.672L19.7523 114.885L19.1944 116.2L19.3228 116.344L20.9425 116.086L21.2454 115.863ZM19.0764 116.219L19.6351 114.91L19.5068 114.779L18.0684 115.073L17.8126 115.272L17.259 116.518L17.3659 116.657L18.8 116.429L19.0764 116.219V116.219ZM17.1537 116.534L17.7082 115.293L17.6021 115.167L16.3152 115.429L16.0807 115.618L15.5331 116.8L15.6213 116.934L16.9005 116.73L17.1546 116.533L17.1537 116.534ZM33.7422 114.427L33.2296 116.358L33.5899 116.577L37.0818 116.202L37.6465 115.862L38.0991 113.769L37.6644 113.574L34.2333 114.111L33.743 114.428L33.7422 114.427ZM29.8438 115.017L29.2945 116.803L29.5803 117.007L32.4981 116.694L32.9858 116.387L33.5009 114.464L33.1552 114.28L30.2734 114.73L29.8438 115.017ZM26.5265 115.52L25.9558 117.179L26.1859 117.371L28.6596 117.106L29.0866 116.826L29.6385 115.048L29.3612 114.872L26.9064 115.255L26.5256 115.52H26.5265ZM23.6686 115.953L23.0868 117.502L23.2742 117.684L25.3987 117.456L25.7787 117.198L26.3511 115.546L26.1252 115.378L24.0092 115.709L23.6678 115.952L23.6686 115.953ZM21.1821 116.33L20.5969 117.783L20.7509 117.956L22.5956 117.757L22.9353 117.52L23.5172 115.976L23.3332 115.815L21.4901 116.103L21.1821 116.33ZM18.9976 116.661L18.4167 118.03L18.5416 118.194L20.1579 118.02L20.4651 117.798L21.0486 116.35L20.898 116.196L19.2774 116.449L18.9976 116.661ZM17.0647 116.953L16.488 118.247L16.5916 118.402L18.0205 118.248L18.2994 118.042L18.8821 116.678L18.7572 116.53L17.3231 116.755L17.0664 116.952L17.0647 116.953ZM15.3406 117.215L14.7725 118.44L14.8563 118.589L16.1278 118.453L16.3836 118.258L16.9586 116.97L16.8568 116.828L15.5768 117.029L15.3398 117.216L15.3406 117.215Z" fill="#0051E0"/>
    <path opacity="0.4" d="M44.2515 88.8184L22.6456 100.896L14.1875 118.999L44.2515 88.8184Z" fill="white"/>
    <path d="M72.6757 117.791H74.375V123.699H72.6757V117.791Z" fill="#586672"/>
    <path opacity="0.3" d="M73.8935 117.791H74.1533V123.699H73.8935V117.791Z" fill="white"/>
    <path opacity="0.5" d="M72.8997 117.791H73.2988V123.699H72.8997V117.791Z" fill="black"/>
    <path d="M66.7327 120.213L81.5987 121.204L81.7329 120.991L66.8208 118.246L66.5421 119.692L66.7327 120.213Z" fill="#111B1F"/>
    <path d="M63.0863 102.459L63.4316 102.395L76.5343 109.871L81.7329 120.99L66.5421 119.691L63.0863 102.459Z" fill="#3E4E58"/>
    <path d="M76.6537 109.785L63.4322 102.395L64.287 106.589L78.0845 112.844L76.6545 109.784L76.6537 109.785ZM79.8103 116.543L65.4187 112.148L64.3348 106.82L78.1597 113.006L79.8111 116.543H79.8103ZM81.8301 120.864L66.9034 119.436L65.4794 112.445L79.8983 116.729L81.8301 120.865V120.864Z" fill="#E3E5EE"/>
    <path d="M66.1474 104.759L66.3406 104.789L66.1722 104.152L65.9363 103.949L64.237 103.007L64.0165 102.961L64.1592 103.619L64.4217 103.838L66.1474 104.759ZM66.4645 104.855L66.2953 104.22L66.4833 104.252L67.9766 105.081L68.1903 105.265L68.38 105.881L68.2151 105.862L66.7013 105.055L66.4654 104.855H66.4645ZM68.4895 105.94L68.2988 105.326L68.4595 105.349L69.7836 106.082L69.9785 106.253L70.1819 106.846L70.0408 106.837L68.7023 106.122L68.4895 105.94ZM70.2793 106.898L70.075 106.306L70.2135 106.321L71.3956 106.975L71.5734 107.134L71.7888 107.706L71.6666 107.703L70.4751 107.068L70.281 106.898H70.2793ZM71.8743 107.753L71.6589 107.181L71.7777 107.188L72.8385 107.776L73.0034 107.923L73.2265 108.477L73.1197 108.479L72.0521 107.909L71.8743 107.753V107.753ZM73.3043 108.519L73.0812 107.966L73.1855 107.968L74.1437 108.499L74.295 108.637L74.5224 109.172L74.43 109.179L73.4684 108.665L73.3043 108.519ZM74.5933 109.21L74.3659 108.675L74.4565 108.672L75.3258 109.153L75.4677 109.284L75.6977 109.801L75.6182 109.812L74.7463 109.347L74.5942 109.21H74.5933ZM75.7618 109.836L75.531 109.318L75.6096 109.312L76.402 109.751L76.5345 109.872L76.7661 110.374L76.696 110.387L75.9019 109.964L75.7609 109.836H75.7618ZM64.6268 104.76L64.3593 104.54L64.2105 103.85L64.4345 103.889L66.1619 104.808L66.4021 105.011L66.5782 105.676L66.3816 105.654L64.6268 104.758V104.76ZM68.4783 106.725L66.9441 105.942L66.7047 105.742L66.5269 105.078L66.7167 105.104L68.2313 105.909L68.4476 106.095L68.6459 106.736L68.4792 106.725H68.4783ZM70.2545 107.054L70.4682 107.671L70.3255 107.668L68.9715 106.977L68.7553 106.793L68.557 106.154L68.7185 106.171L70.0571 106.884L70.2545 107.054ZM71.8632 107.907L72.0863 108.501L71.9641 108.504L70.7623 107.891L70.5657 107.721L70.3528 107.105L70.4913 107.113L71.6837 107.748L71.8641 107.907H71.8632ZM73.3043 108.67L73.5343 109.244L73.4291 109.252L72.3538 108.703L72.1735 108.546L71.9495 107.953H72.0692L73.1376 108.524L73.3043 108.671V108.67ZM74.6027 109.358L74.8378 109.912L74.7463 109.923L73.7787 109.43L73.6129 109.283L73.383 108.712L73.4864 108.708L74.4488 109.22L74.6027 109.358ZM75.778 109.982L76.0156 110.516L75.9361 110.53L75.0617 110.085L74.9087 109.948L74.6728 109.396L74.7634 109.388L75.6353 109.853L75.778 109.982ZM76.7148 110.427L76.8473 110.548L77.0866 111.064L77.0174 111.081L76.2233 110.676L76.0814 110.548L75.843 110.015L75.9216 110.003L76.7157 110.426L76.7148 110.427ZM64.8413 105.727L64.567 105.505L64.4105 104.782L64.6388 104.814L66.3944 105.709L66.6398 105.912L66.8235 106.608L66.6244 106.594L64.8405 105.727L64.8413 105.727ZM66.9517 106.67L66.7654 105.975L66.9577 105.994L68.4929 106.775L68.7134 106.962L68.9194 107.63L68.7519 107.625L67.1962 106.87L66.9517 106.67ZM70.5409 107.887L70.7631 108.53L70.6204 108.532L69.2519 107.868L69.0314 107.684L68.8245 107.017L68.9878 107.026L70.3417 107.715L70.5417 107.886L70.5409 107.887ZM72.1641 108.708L72.3957 109.326L72.2735 109.335L71.0614 108.746L70.8623 108.577L70.64 107.937L70.7785 107.939L71.9812 108.551L72.1641 108.709V108.708ZM73.6146 109.443L73.8531 110.038L73.7479 110.051L72.6667 109.526L72.4846 109.37L72.2521 108.754L72.3718 108.749L73.4471 109.297L73.6146 109.444V109.443ZM74.9198 110.105L75.1634 110.677L75.0728 110.694L74.1018 110.222L73.9334 110.076L73.6941 109.483L73.7975 109.474L74.7651 109.966L74.9198 110.105ZM76.0994 110.702L76.3447 111.254L76.2661 111.273L75.3891 110.847L75.2335 110.711L74.9899 110.139L75.0797 110.126L75.9541 110.572L76.0985 110.702H76.0994ZM77.0362 111.122L77.1695 111.244L77.4174 111.776L77.3482 111.798L76.5524 111.412L76.4097 111.284L76.1635 110.733L76.2413 110.717L77.0371 111.121L77.0362 111.122ZM65.0661 106.741L64.7875 106.52L64.6225 105.76L64.8542 105.783L66.6406 106.647L66.8893 106.851L67.0817 107.58L66.8808 107.575L65.0661 106.741ZM67.2116 107.641L67.0167 106.913L67.2107 106.924L68.7681 107.677L68.9921 107.864L69.2075 108.562L69.0382 108.566L67.4612 107.842L67.2124 107.642L67.2116 107.641ZM69.3203 108.614L69.104 107.918L69.2681 107.921L70.6366 108.583L70.84 108.754L71.0708 109.424L70.9272 109.434L69.5442 108.8L69.3203 108.615V108.614ZM72.4778 109.542L72.7188 110.183L72.5957 110.2L71.3726 109.637L71.17 109.468L70.9392 108.801L71.0785 108.795L72.2914 109.383L72.4769 109.541L72.4778 109.542ZM73.9377 110.246L74.1864 110.862L74.0822 110.881L72.9923 110.381L72.8077 110.224L72.5658 109.584L72.6855 109.574L73.7685 110.098L73.9386 110.245L73.9377 110.246ZM75.248 110.877L75.4993 111.468L75.4096 111.492L74.4335 111.044L74.2642 110.899L74.0163 110.284L74.1189 110.268L75.0908 110.739L75.2472 110.877L75.248 110.877ZM76.431 111.445L76.684 112.015L76.6071 112.041L75.7276 111.636L75.5711 111.501L75.319 110.91L75.4079 110.891L76.2849 111.316L76.431 111.445ZM77.5038 111.962L77.7576 112.512L77.691 112.539L76.8935 112.174L76.749 112.045L76.4951 111.476L76.5721 111.455L77.367 111.841L77.5029 111.961L77.5038 111.962ZM65.4474 108.461L65.1585 108.24L64.9798 107.415L65.2166 107.423L67.0518 108.233L67.3082 108.437L67.5167 109.224L67.3125 109.234L65.4465 108.462L65.4474 108.461ZM67.6509 109.277L67.4407 108.494L67.6381 108.49L69.2288 109.193L69.4588 109.379L69.6904 110.128L69.5194 110.146L67.9074 109.479L67.6509 109.277ZM69.8058 110.176L69.5742 109.429L69.7391 109.419L71.1324 110.033L71.3401 110.204L71.5863 110.919L71.4427 110.943L70.0357 110.361L69.8058 110.178V110.176ZM71.688 110.961L71.4409 110.247L71.5811 110.23L72.8103 110.773L72.9992 110.931L73.2556 111.614L73.1334 111.641L71.8948 111.129L71.688 110.961ZM74.4728 111.578L74.736 112.231L74.6326 112.263L73.5334 111.807L73.3445 111.652L73.0881 110.97L73.2077 110.948L74.3001 111.431L74.4728 111.578ZM75.7925 112.156L76.0592 112.783L75.9703 112.815L74.9891 112.41L74.8164 112.265L74.554 111.613L74.6557 111.588L75.6335 112.02L75.7925 112.157V112.156ZM76.9798 112.677L77.2473 113.279L77.1713 113.314L76.2883 112.948L76.1293 112.814L75.8635 112.188L75.9515 112.16L76.8311 112.548L76.9789 112.676L76.9798 112.677ZM77.1191 112.676L77.9158 113.027L78.0534 113.147L78.3209 113.725L78.2551 113.761L77.4576 113.432L77.3106 113.304L77.0439 112.704L77.1183 112.675L77.1191 112.676ZM65.7055 109.621L65.4098 109.4L65.2217 108.53L65.4628 108.526L67.3304 109.296L67.592 109.499L67.8108 110.326L67.6039 110.348L65.7064 109.621H65.7055ZM67.9458 110.379L67.7253 109.555L67.9245 109.541L69.5374 110.206L69.7716 110.392L70.0135 111.176L69.8408 111.205L68.2065 110.579L67.945 110.379L67.9458 110.379ZM70.1306 111.221L69.8878 110.439L70.0537 110.419L71.4623 110.999L71.6726 111.17L71.929 111.916L71.7854 111.948L70.3631 111.404L70.1297 111.221H70.1306ZM72.0324 111.955L71.7743 111.211L71.9145 111.185L73.1539 111.696L73.3445 111.854L73.6112 112.565L73.4907 112.601L72.2419 112.124L72.0316 111.956L72.0324 111.955ZM74.8284 112.46L75.101 113.139L74.9985 113.177L73.8933 112.754L73.7026 112.598L73.4351 111.889L73.5539 111.859L74.6531 112.312L74.8284 112.458V112.46ZM76.1524 113.002L76.4285 113.652L76.3396 113.692L75.3557 113.315L75.1822 113.171L74.9087 112.494L75.0096 112.461L75.9917 112.866L76.1532 113.002H76.1524ZM77.3414 113.488L77.6183 114.111L77.5431 114.151L76.6593 113.814L76.4994 113.679L76.2242 113.032L76.3105 112.996L77.1926 113.36L77.3414 113.488ZM78.2773 113.808L78.4149 113.928L78.6919 114.525L78.6269 114.566L77.8311 114.262L77.6833 114.136L77.4063 113.515L77.4798 113.479L78.2773 113.807V113.808ZM65.9773 110.845L65.6756 110.624L65.4773 109.707L65.7217 109.69L67.6219 110.414L67.8877 110.618L68.1185 111.486L67.9099 111.521L65.9773 110.845ZM68.2561 111.534L68.0245 110.668L68.2253 110.643L69.8613 111.266L70.0998 111.451L70.3528 112.272L70.1793 112.312L68.5219 111.733L68.2553 111.533L68.2561 111.534ZM70.4716 112.316L70.2178 111.496L70.3853 111.465L71.8076 112.007L72.0222 112.178L72.2906 112.956L72.1461 112.999L70.7093 112.498L70.4725 112.316H70.4716ZM72.394 112.994L72.1239 112.216L72.2641 112.182L73.512 112.658L73.7061 112.814L73.9847 113.556L73.8633 113.6L72.606 113.161L72.3931 112.994H72.394ZM75.1985 113.378L75.4823 114.083L75.3797 114.129L74.2702 113.742L74.077 113.587L73.7984 112.848L73.9172 112.811L75.0215 113.232L75.1985 113.378ZM75.5626 114.111L75.2788 113.407L75.3797 113.369L76.3644 113.743L76.5268 113.879L76.8131 114.553L76.7268 114.6L75.7395 114.255L75.5626 114.111ZM77.7174 114.329L78.0038 114.973L77.9303 115.02L77.0465 114.711L76.8849 114.578L76.5986 113.906L76.6849 113.865L77.567 114.201L77.7174 114.329ZM78.6517 114.614L78.7902 114.734L79.0765 115.351L79.0133 115.4L78.2175 115.121L78.0679 114.996L77.7807 114.354L77.8542 114.312L78.65 114.616L78.6517 114.614ZM66.2662 112.14L65.956 111.92L65.7474 110.95L65.9953 110.919L67.9296 111.592L68.2014 111.794L68.4442 112.71L68.233 112.758L66.2662 112.142V112.14ZM68.5835 112.752L68.339 111.84L68.5425 111.802L70.2007 112.378L70.4434 112.563L70.7084 113.425L70.5349 113.476L68.8553 112.95L68.5835 112.752V112.752ZM70.8289 113.463L70.5623 112.605L70.7298 112.563L72.1675 113.063L72.3855 113.232L72.6658 114.048L72.5222 114.101L71.0708 113.646L70.8289 113.464V113.463ZM72.7701 114.079L72.4889 113.267L72.6291 113.222L73.8873 113.659L74.0839 113.815L74.3736 114.588L74.2531 114.643L72.9864 114.246L72.7701 114.079ZM74.4651 114.617L74.1745 113.847L74.2916 113.8L75.4028 114.186L75.5814 114.33L75.8763 115.064L75.7754 115.12L74.66 114.77L74.4642 114.617H74.4651ZM75.9575 115.091L75.6618 114.358L75.7618 114.311L76.749 114.653L76.9131 114.788L77.2106 115.487L77.1251 115.542L76.1361 115.231L75.9575 115.09V115.091ZM77.2824 115.511L76.9858 114.813L77.0695 114.765L77.9534 115.071L78.1047 115.199L78.4021 115.866L78.3303 115.92L77.4465 115.644L77.2832 115.511H77.2824ZM78.4662 115.886L78.1688 115.221L78.2397 115.172L79.0355 115.449L79.1757 115.568L79.4714 116.205L79.4099 116.261L78.6158 116.011L78.4654 115.886H78.4662ZM66.756 114.348L66.4338 114.13L66.2038 113.067L66.4577 113.012L68.4476 113.587L68.7288 113.787L68.9921 114.783L68.7775 114.856L66.7543 114.349L66.756 114.348ZM69.1365 114.819L68.8698 113.827L69.0767 113.767L70.7708 114.257L71.0204 114.439L71.3076 115.372L71.1324 115.445L69.416 115.015L69.1357 114.819H69.1365ZM71.4307 115.403L71.1409 114.473L71.3093 114.412L72.771 114.835L72.9932 115.002L73.2958 115.879L73.1522 115.952L71.6777 115.582L71.4307 115.404V115.403ZM73.4018 115.905L73.0992 115.031L73.2385 114.969L74.5112 115.336L74.7121 115.49L75.0215 116.318L74.9036 116.39L73.6231 116.069L73.4018 115.905ZM75.1147 116.342L74.8036 115.516L74.9207 115.454L76.0378 115.778L76.2208 115.92L76.5353 116.704L76.4362 116.775L75.3147 116.493L75.1147 116.342V116.342ZM76.6165 116.724L76.302 115.943L76.3994 115.881L77.3901 116.167L77.5559 116.3L77.8722 117.044L77.7892 117.113L76.7986 116.865L76.6165 116.724ZM77.9448 117.062L77.6286 116.322L77.7115 116.26L78.5944 116.515L78.7474 116.64L79.062 117.347L78.9928 117.414L78.1106 117.194L77.9448 117.062V117.062ZM79.1269 117.364L78.8124 116.659L78.8816 116.599L79.6749 116.828L79.8167 116.946L80.1287 117.619L80.0706 117.685L79.28 117.487L79.1278 117.364L79.1269 117.364ZM67.0902 115.851L66.7611 115.635L66.5167 114.506L66.7757 114.431L68.8006 114.934L69.0878 115.133L69.3664 116.186L69.1493 116.278L67.0902 115.852V115.851ZM69.5118 116.217L69.2314 115.169L69.4391 115.093L71.1563 115.52L71.4102 115.7L71.7128 116.682L71.5367 116.771L69.7981 116.411L69.5109 116.217H69.5118ZM71.8367 116.707L71.5333 115.729L71.7025 115.653L73.1787 116.02L73.4035 116.186L73.7206 117.106L73.5778 117.192L72.0897 116.885L71.8367 116.707ZM73.8266 117.129L73.5086 116.212L73.6479 116.137L74.9284 116.454L75.1318 116.607L75.4566 117.471L75.3387 117.555L74.0505 117.288L73.8257 117.127L73.8266 117.129ZM75.5498 117.493L75.2241 116.63L75.3395 116.557L76.4618 116.835L76.6456 116.977L76.9738 117.794L76.8764 117.875L75.7506 117.643L75.5489 117.493L75.5498 117.493ZM77.0559 117.81L76.7276 116.997L76.8234 116.925L77.814 117.171L77.9833 117.304L78.3107 118.076L78.2303 118.155L77.2388 117.95L77.055 117.81H77.0559ZM78.3833 118.091L78.0559 117.321L78.1363 117.251L79.0184 117.47L79.174 117.594L79.5005 118.328L79.4321 118.404L78.5517 118.222L78.3842 118.092L78.3833 118.091ZM79.5629 118.341L79.2372 117.608L79.3047 117.541L80.0945 117.737L80.2381 117.853L80.5612 118.551L80.5048 118.625L79.7176 118.462L79.5637 118.34L79.5629 118.341ZM67.4441 117.45L67.1065 117.237L66.8458 116.036L67.109 115.94L69.1716 116.361L69.4647 116.559L69.7596 117.674L69.5408 117.785L67.4432 117.451L67.4441 117.45ZM70.2007 117.889L69.9075 117.697L69.6101 116.587L69.8195 116.493L71.5606 116.849L71.8188 117.028L72.1384 118.063L71.9623 118.17L70.2007 117.89V117.889ZM72.2632 118.084L71.9435 117.054L72.1136 116.963L73.6018 117.267L73.8317 117.431L74.1642 118.397L74.0223 118.498L72.5205 118.259L72.2641 118.085L72.2632 118.084ZM74.2711 118.413L73.9386 117.451L74.077 117.363L75.3651 117.626L75.5711 117.777L75.9105 118.682L75.7942 118.779L74.4993 118.573L74.2702 118.413L74.2711 118.413ZM76.0037 118.698L75.6635 117.796L75.7771 117.711L76.902 117.94L77.0892 118.081L77.432 118.933L77.3362 119.026L76.2088 118.846L76.0037 118.698ZM77.5132 118.946L77.1713 118.097L77.2653 118.014L78.2577 118.217L78.4278 118.347L78.7688 119.151L78.6902 119.24L77.6995 119.082L77.5132 118.945V118.946ZM78.8406 119.164L78.4987 118.363L78.5773 118.283L79.4586 118.463L79.6142 118.586L79.9535 119.346L79.8877 119.432L79.009 119.292L78.8406 119.164V119.164ZM80.0168 119.357L79.6774 118.598L79.7432 118.521L80.5305 118.682L80.6732 118.797L81.0083 119.52L80.9544 119.603L80.1715 119.478L80.0159 119.358L80.0168 119.357ZM69.8656 118.068L70.1785 119.249L69.9588 119.383L67.8219 119.155L67.4757 118.946L67.1988 117.665L67.4646 117.546L69.5647 117.875L69.8648 118.069L69.8656 118.068ZM72.2513 118.429L72.5872 119.521L72.412 119.646L70.6272 119.454L70.3289 119.266L70.0135 118.089L70.2246 117.976L71.9888 118.252L72.2513 118.428V118.429ZM74.2813 118.737L74.6309 119.752L74.4899 119.87L72.9761 119.707L72.7145 119.536L72.3769 118.448L72.5462 118.34L74.0488 118.575L74.2822 118.737H74.2813ZM76.0302 119.002L76.3857 119.95L76.272 120.061L74.972 119.922L74.7395 119.764L74.3899 118.754L74.5275 118.651L75.8224 118.854L76.031 119.004L76.0302 119.002ZM77.5516 119.232L77.9098 120.122L77.8157 120.228L76.6866 120.106L76.4789 119.961L76.1225 119.017L76.2353 118.918L77.3627 119.094L77.5516 119.233V119.232ZM78.8885 119.435L79.2449 120.273L79.168 120.373L78.179 120.266L77.991 120.131L77.6337 119.244L77.7251 119.15L78.7167 119.305L78.8885 119.434V119.435ZM80.0715 119.613L80.4245 120.405L80.3612 120.501L79.4877 120.407L79.3167 120.281L78.9603 119.446L79.0363 119.356L79.9142 119.493L80.0715 119.614V119.613ZM81.1254 119.773L81.4741 120.524L81.4228 120.614L80.6441 120.531L80.4877 120.412L80.1356 119.623L80.1988 119.537L80.9809 119.66L81.1254 119.773Z" fill="#0051E0"/>
    <path opacity="0.4" d="M63.4309 102.395L76.6532 109.784L81.8296 120.863L63.4309 102.395Z" fill="white"/>
</svg>
