<svg width="24" height="24" viewBox="0 0 24 24" fill="none" xmlns="http://www.w3.org/2000/svg">
<path fill-rule="evenodd" clip-rule="evenodd" d="M14.7294 8.64258C12.7424 8.64258 10.7553 8.64258 8.76819 8.64258C4.97647 11.7447 0.273538 20.8137 8.75476 21C10.7507 21 12.7469 21 14.7428 21C23.2241 20.8137 18.5211 11.7447 14.7294 8.64258ZM14.2957 9.82936C12.5978 9.82936 10.8998 9.82936 9.20193 9.82936C6.50752 12.1754 1.76558 19.7374 8.76778 19.8132C10.7551 19.8351 12.7426 19.8351 14.7298 19.8132C21.732 19.7374 16.9897 12.175 14.2957 9.82936Z" fill="#4D4D4D"/>
<path fill-rule="evenodd" clip-rule="evenodd" d="M14.3982 6.92188C12.6322 6.92188 10.8656 6.92188 9.09954 6.92188C8.36143 6.92188 8.36143 8.03781 9.09954 8.03781C10.8656 8.03781 12.6322 8.03781 14.3982 8.03781C15.1364 8.03781 15.1364 6.92188 14.3982 6.92188Z" fill="#4D4D4D"/>
<path fill-rule="evenodd" clip-rule="evenodd" d="M7.13685 4.21278C6.85044 2.25517 9.0613 2.97703 11.7484 4.20888C14.4356 2.97704 16.6463 2.25518 16.3599 4.21278C16.132 5.16212 15.4593 5.78584 14.6858 6.3359C12.7276 6.3359 10.7691 6.3359 8.81084 6.3359C8.03742 5.78584 7.36476 5.16212 7.13685 4.21278Z" fill="#4D4D4D"/>
</svg>
