<svg width="17" height="16" viewBox="0 0 17 16" fill="none" xmlns="http://www.w3.org/2000/svg">
<path d="M0.646447 3.35355C0.451184 3.15829 0.451184 2.84171 0.646447 2.64645C0.841709 2.45118 1.15829 2.45118 1.35355 2.64645L0.646447 3.35355ZM6 8L6.35355 8.35355C6.15829 8.54882 5.84171 8.54882 5.64645 8.35355L6 8ZM9 5L8.64645 4.64645C8.84171 4.45118 9.15829 4.45118 9.35355 4.64645L9 5ZM17 13L11.4232 11.5057L15.5057 7.42322L17 13ZM1.35355 2.64645L6.35355 7.64645L5.64645 8.35355L0.646447 3.35355L1.35355 2.64645ZM5.64645 7.64645L8.64645 4.64645L9.35355 5.35355L6.35355 8.35355L5.64645 7.64645ZM9.35355 4.64645L14.1716 9.46447L13.4645 10.1716L8.64645 5.35355L9.35355 4.64645Z" fill="#00AA4E"/>
</svg>
