<svg width="17" height="16" viewBox="0 0 17 16" fill="none" xmlns="http://www.w3.org/2000/svg">
<path d="M0.646447 12.6464C0.451184 12.8417 0.451184 13.1583 0.646447 13.3536C0.841709 13.5488 1.15829 13.5488 1.35355 13.3536L0.646447 12.6464ZM6 8L6.35355 7.64645C6.15829 7.45118 5.84171 7.45118 5.64645 7.64645L6 8ZM9 11L8.64645 11.3536C8.84171 11.5488 9.15829 11.5488 9.35355 11.3536L9 11ZM17 3L11.4232 4.49429L15.5057 8.57678L17 3ZM1.35355 13.3536L6.35355 8.35355L5.64645 7.64645L0.646447 12.6464L1.35355 13.3536ZM5.64645 8.35355L8.64645 11.3536L9.35355 10.6464L6.35355 7.64645L5.64645 8.35355ZM9.35355 11.3536L14.1716 6.53553L13.4645 5.82843L8.64645 10.6464L9.35355 11.3536Z" fill="#FF0B0B"/>
</svg>
